<svg xmlns="http://www.w3.org/2000/svg" version="1.1" width="70" height="70" viewBox="0 0 70 70"><rect x="0" y="0" width="70" height="70" fill="#ffffff"/><g transform="scale(2.414)"><g transform="translate(0,0)"><path fill-rule="evenodd" d="M10 0L10 1L9 1L9 2L8 2L8 3L9 3L9 5L10 5L10 7L11 7L11 8L13 8L13 9L14 9L14 8L15 8L15 9L16 9L16 10L17 10L17 9L18 9L18 8L20 8L20 7L21 7L21 6L20 6L20 5L21 5L21 4L19 4L19 3L20 3L20 2L21 2L21 1L20 1L20 0L19 0L19 3L18 3L18 5L19 5L19 6L18 6L18 7L17 7L17 6L16 6L16 4L17 4L17 3L14 3L14 4L12 4L12 5L10 5L10 3L9 3L9 2L10 2L10 1L11 1L11 0ZM13 0L13 1L14 1L14 2L16 2L16 1L17 1L17 0ZM11 2L11 3L12 3L12 2ZM12 5L12 6L11 6L11 7L12 7L12 6L13 6L13 7L14 7L14 6L15 6L15 8L16 8L16 6L15 6L15 5L14 5L14 6L13 6L13 5ZM8 6L8 8L4 8L4 9L3 9L3 8L0 8L0 9L3 9L3 10L2 10L2 11L1 11L1 12L0 12L0 13L1 13L1 12L2 12L2 13L3 13L3 14L4 14L4 13L5 13L5 14L6 14L6 15L5 15L5 16L4 16L4 18L2 18L2 19L1 19L1 18L0 18L0 19L1 19L1 20L0 20L0 21L1 21L1 20L2 20L2 19L3 19L3 20L4 20L4 21L7 21L7 20L5 20L5 19L8 19L8 25L9 25L9 26L8 26L8 29L9 29L9 27L10 27L10 25L13 25L13 27L11 27L11 28L10 28L10 29L11 29L11 28L12 28L12 29L14 29L14 28L16 28L16 27L17 27L17 29L18 29L18 28L19 28L19 27L18 27L18 26L17 26L17 25L19 25L19 26L21 26L21 27L20 27L20 29L21 29L21 27L22 27L22 26L21 26L21 25L23 25L23 27L24 27L24 28L22 28L22 29L24 29L24 28L25 28L25 23L26 23L26 22L27 22L27 23L29 23L29 21L26 21L26 22L25 22L25 20L26 20L26 18L27 18L27 20L28 20L28 19L29 19L29 16L28 16L28 15L29 15L29 12L28 12L28 11L29 11L29 9L28 9L28 10L26 10L26 9L27 9L27 8L26 8L26 9L25 9L25 10L24 10L24 12L25 12L25 14L23 14L23 12L22 12L22 11L21 11L21 10L23 10L23 8L21 8L21 10L20 10L20 11L19 11L19 10L18 10L18 11L15 11L15 12L16 12L16 14L17 14L17 15L15 15L15 17L16 17L16 18L17 18L17 21L16 21L16 19L14 19L14 18L13 18L13 21L14 21L14 20L15 20L15 21L16 21L16 22L17 22L17 21L18 21L18 20L19 20L19 21L20 21L20 22L19 22L19 24L18 24L18 23L17 23L17 24L16 24L16 23L15 23L15 22L14 22L14 23L12 23L12 24L10 24L10 23L11 23L11 21L9 21L9 19L11 19L11 17L12 17L12 15L13 15L13 17L14 17L14 14L15 14L15 13L14 13L14 10L12 10L12 11L13 11L13 14L12 14L12 15L7 15L7 14L11 14L11 10L10 10L10 9L9 9L9 6ZM19 6L19 7L20 7L20 6ZM4 9L4 10L3 10L3 11L2 11L2 12L3 12L3 13L4 13L4 10L5 10L5 13L6 13L6 14L7 14L7 13L6 13L6 12L9 12L9 13L10 13L10 12L9 12L9 11L10 11L10 10L9 10L9 9L8 9L8 10L9 10L9 11L6 11L6 10L7 10L7 9L6 9L6 10L5 10L5 9ZM25 10L25 11L26 11L26 13L27 13L27 14L25 14L25 15L24 15L24 16L23 16L23 18L24 18L24 20L25 20L25 18L26 18L26 17L27 17L27 18L28 18L28 17L27 17L27 14L28 14L28 13L27 13L27 11L26 11L26 10ZM18 11L18 13L17 13L17 14L18 14L18 15L20 15L20 16L18 16L18 17L17 17L17 18L18 18L18 19L20 19L20 20L22 20L22 17L21 17L21 16L22 16L22 15L23 15L23 14L22 14L22 15L20 15L20 14L21 14L21 11L20 11L20 12L19 12L19 11ZM1 14L1 15L0 15L0 16L1 16L1 17L3 17L3 15L2 15L2 14ZM1 15L1 16L2 16L2 15ZM6 15L6 16L5 16L5 17L6 17L6 18L8 18L8 17L6 17L6 16L7 16L7 15ZM25 15L25 16L26 16L26 15ZM10 16L10 17L9 17L9 18L10 18L10 17L11 17L11 16ZM4 18L4 19L5 19L5 18ZM20 18L20 19L21 19L21 18ZM21 21L21 24L24 24L24 21ZM9 22L9 23L10 23L10 22ZM22 22L22 23L23 23L23 22ZM14 24L14 26L15 26L15 27L16 27L16 24ZM19 24L19 25L20 25L20 24ZM28 24L28 27L27 27L27 25L26 25L26 27L27 27L27 29L29 29L29 28L28 28L28 27L29 27L29 24ZM0 0L0 7L7 7L7 0ZM1 1L1 6L6 6L6 1ZM2 2L2 5L5 5L5 2ZM22 0L22 7L29 7L29 0ZM23 1L23 6L28 6L28 1ZM24 2L24 5L27 5L27 2ZM0 22L0 29L7 29L7 22ZM1 23L1 28L6 28L6 23ZM2 24L2 27L5 27L5 24Z" fill="#000000"/></g></g></svg>